<svg width="22" height="22" viewBox="0 0 22 22" fill="none" xmlns="http://www.w3.org/2000/svg">
<path d="M7.90121 9.40932C8.85246 9.22366 9.78066 8.96847 10.6623 8.69003C9.49062 6.5437 8.04043 4.60624 6.33496 2.97046C3.82906 4.3162 1.92246 6.71776 1.30762 9.58331C3.1523 9.95456 5.43008 9.90819 7.90121 9.40932Z" fill="#E9E9E9"/>
<path d="M17.2869 4.08415L17.1245 4.72224C16.8693 5.74317 14.7114 7.20497 11.8806 8.26075L11.753 8.30712C10.6044 6.13763 9.15424 4.16536 7.46045 2.45997C8.551 2.03071 9.74592 1.76001 10.9873 1.76001C13.2032 1.76001 15.2683 2.54118 16.9157 3.78251C17.0433 3.87532 17.171 3.96817 17.2869 4.08415Z" fill="#E9E9E9"/>
<path d="M12.2054 12.1357C11.9038 11.312 11.5673 10.5115 11.1961 9.73413C10.2216 10.059 9.18905 10.3375 8.13327 10.5462C6.98471 10.7783 5.48815 10.9871 3.91034 10.9871C3.00537 10.9871 2.03858 10.9175 1.12209 10.7434C1.09885 11.0451 1.12592 11.3467 1.12592 11.66C1.12592 14.7112 2.51811 17.4375 4.6876 19.2474C4.6992 19.1778 4.71084 19.1082 4.72237 19.0385C5.16327 16.3703 8.24932 13.5511 12.2054 12.1357Z" fill="#E9E9E9"/>
<path d="M12.5883 13.2262C13.3772 15.7089 13.8181 18.4044 13.8645 21.1308C12.9596 21.4092 11.985 21.56 10.9873 21.56C9.11946 21.56 7.36763 20.9993 5.88259 20.0943C5.82458 19.8159 5.82458 19.5259 5.87107 19.2242C6.23071 17.0316 9.10786 14.4908 12.5883 13.2262Z" fill="#E9E9E9"/>
<path d="M20.7828 13.0638C20.2956 16.4631 18.041 19.3054 15.0014 20.6629C14.9202 17.9713 14.4561 15.3493 13.6788 12.8782C16.2776 12.1589 18.741 12.2401 20.7828 13.0638Z" fill="#E9E9E9"/>
<path d="M20.8872 11.66V11.8688C18.6714 11.0451 16.0455 11.0103 13.3076 11.7876C13.0059 10.9523 12.6579 10.1402 12.2866 9.35132C14.1936 8.63531 17.7524 6.98742 18.2498 5.00073C19.8625 6.75249 20.8872 9.09601 20.8872 11.66Z" fill="#E9E9E9"/>
</svg>
