<svg width="31" height="30" viewBox="0 0 31 30" fill="none" xmlns="http://www.w3.org/2000/svg">
<path d="M11.168 13.4309C12.4651 13.1777 13.7309 12.8297 14.9331 12.45C13.3353 9.52324 11.3578 6.88125 9.03217 4.65063C5.61503 6.48574 3.01512 9.76059 2.1767 13.6682C4.69218 14.1744 7.79823 14.1112 11.168 13.4309Z" fill="#E9E9E9"/>
<path d="M23.9667 6.16928L23.7452 7.0394C23.3972 8.43159 20.4547 10.4249 16.5945 11.8646L16.4204 11.9279C14.8542 8.96948 12.8767 6.28003 10.567 3.95449C12.0541 3.36914 13.6835 3 15.3763 3C18.3979 3 21.214 4.06523 23.4605 5.75795C23.6344 5.88452 23.8086 6.01113 23.9667 6.16928Z" fill="#E9E9E9"/>
<path d="M17.0373 17.1486C16.626 16.0254 16.1672 14.9338 15.6609 13.8738C14.3321 14.3168 12.9241 14.6965 11.4844 14.9812C9.91815 15.2976 7.87739 15.5824 5.72582 15.5824C4.49179 15.5824 3.17343 15.4875 1.92368 15.2501C1.89198 15.6614 1.9289 16.0728 1.9289 16.5C1.9289 20.6607 3.82733 24.3784 6.78573 26.8464C6.80155 26.7515 6.81743 26.6565 6.83314 26.5616C7.43437 22.923 11.6426 19.0787 17.0373 17.1486Z" fill="#E9E9E9"/>
<path d="M17.5594 18.6356C18.6352 22.0212 19.2364 25.6968 19.2996 29.4146C18.0657 29.7943 16.7367 30 15.3762 30C12.8291 30 10.4403 29.2353 8.41521 28.0013C8.33611 27.6216 8.33611 27.2261 8.3995 26.8147C8.88993 23.8247 12.8133 20.3601 17.5594 18.6356Z" fill="#E9E9E9"/>
<path d="M28.7337 18.4143C28.0693 23.0497 24.9949 26.9256 20.85 28.7766C20.7392 25.1063 20.1064 21.5309 19.0464 18.1611C22.5902 17.1803 25.9494 17.2911 28.7337 18.4143Z" fill="#E9E9E9"/>
<path d="M28.8761 16.5V16.7848C25.8545 15.6615 22.2738 15.6141 18.5402 16.674C18.1289 15.535 17.6543 14.4276 17.148 13.3518C19.7484 12.3754 24.6013 10.1283 25.2797 7.41919C27.4787 9.80795 28.8761 13.0037 28.8761 16.5Z" fill="#E9E9E9"/>
</svg>
